<?xml version="1.0" encoding="UTF-8"?><!DOCTYPE svg PUBLIC "-//W3C//DTD SVG 1.1//EN" "http://www.w3.org/Graphics/SVG/1.1/DTD/svg11.dtd"><svg xmlns="http://www.w3.org/2000/svg" xmlns:xlink="http://www.w3.org/1999/xlink"><symbol id="moon" viewBox="0 0 1920 1920">
    <path class="st0" d="M1294.4 1447.1c132.3 0 255.2-40.3 357.1-109.2-129.3 218.6-367.5 365.2-640 365.2-410.4 0-743-332.7-743-743.1s332.7-743 743-743c14.2 0 28.3.4 42.2 1.2-233 95-397.3 323.8-397.3 591 .1 352.2 285.7 637.9 638 637.9z" id="Layer_5"/>
    <path class="st1" d="M1294.4 1447.1c-352.3 0-637.9-285.6-637.9-637.9 0-267.2 164.2-496 397.3-591-14-.8-28.1-1.2-42.2-1.2-410.4 0-743 332.7-743 743s332.7 743.1 743 743.1c272.4 0 510.6-146.6 640-365.2-102 68.9-224.9 109.2-357.2 109.2z" id="STROKES"/>
</symbol><symbol id="sun">
<g>
	<path d="M17.424,26.788c-5.163,0-9.363-4.2-9.363-9.363c0-5.164,4.2-9.364,9.363-9.364s9.363,4.201,9.363,9.364
		C26.788,22.588,22.587,26.788,17.424,26.788z M17.424,9.061c-4.611,0-8.363,3.752-8.363,8.364c0,4.611,3.752,8.363,8.363,8.363
		s8.363-3.752,8.363-8.363C25.788,12.813,22.036,9.061,17.424,9.061z"/>
	<g>
		<path d="M17.424,4.982c-0.276,0-0.5-0.224-0.5-0.5V0.5c0-0.276,0.224-0.5,0.5-0.5s0.5,0.224,0.5,0.5v3.982
			C17.924,4.759,17.701,4.982,17.424,4.982z"/>
		<path d="M17.424,34.85c-0.276,0-0.5-0.224-0.5-0.5v-3.982c0-0.276,0.224-0.5,0.5-0.5s0.5,0.224,0.5,0.5v3.982
			C17.924,34.626,17.701,34.85,17.424,34.85z"/>
	</g>
	<g>
		<path d="M4.482,17.925H0.5c-0.276,0-0.5-0.224-0.5-0.5s0.224-0.5,0.5-0.5h3.981c0.276,0,0.5,0.224,0.5,0.5
			S4.758,17.925,4.482,17.925z"/>
		<path d="M34.349,17.925h-3.982c-0.276,0-0.5-0.224-0.5-0.5s0.224-0.5,0.5-0.5h3.982c0.276,0,0.5,0.224,0.5,0.5
			S34.625,17.925,34.349,17.925z"/>
	</g>
	<g>
		<path d="M8.274,8.771c-0.128,0-0.256-0.049-0.354-0.146L5.104,5.811c-0.195-0.195-0.195-0.512,0-0.707s0.512-0.195,0.707,0
			l2.816,2.814c0.195,0.195,0.195,0.512,0,0.707C8.53,8.723,8.402,8.771,8.274,8.771z"/>
		<path d="M29.393,29.893c-0.128,0-0.256-0.049-0.354-0.146l-2.816-2.817c-0.195-0.195-0.195-0.512,0-0.707s0.512-0.195,0.707,0
			l2.816,2.817c0.195,0.195,0.195,0.512,0,0.707C29.649,29.844,29.521,29.893,29.393,29.893z"/>
	</g>
	<g>
		<path d="M5.458,29.893c-0.128,0-0.256-0.049-0.354-0.146c-0.195-0.195-0.195-0.512,0-0.707l2.816-2.817
			c0.195-0.195,0.512-0.195,0.707,0s0.195,0.512,0,0.707l-2.816,2.817C5.713,29.844,5.585,29.893,5.458,29.893z"/>
		<path d="M26.577,8.771c-0.128,0-0.256-0.049-0.354-0.146c-0.195-0.195-0.195-0.512,0-0.707l2.816-2.814
			c0.195-0.195,0.512-0.195,0.707,0s0.195,0.512,0,0.707L26.93,8.625C26.833,8.723,26.705,8.771,26.577,8.771z"/>
	</g>
</g>
<g>
</g>
<g>
</g>
<g>
</g>
<g>
</g>
<g>
</g>
<g>
</g>
<g>
</g>
<g>
</g>
<g>
</g>
<g>
</g>
<g>
</g>
<g>
</g>
<g>
</g>
<g>
</g>
<g>
</g>
</symbol><symbol id="trash">
<path d="M18 7V17.5C18 19.9853 15.9853 22 13.5 22H6.5C4.01472 22 2 19.9853 2 17.5V7H1.29019C0.577639 7 0 6.42236 0 5.70981V4.25C0 2.73122 1.23122 1.5 2.75 1.5H4.40116C4.92486 0.593418 5.90309 0 7 0H13C14.0969 0 15.0751 0.593418 15.5988 1.5H17.25C18.7688 1.5 20 2.73122 20 4.25V5.70981C20 6.42236 19.4224 7 18.7098 7H18ZM17 5H18V4.25C18 3.83579 17.6642 3.5 17.25 3.5H14.937C14.4807 3.5 14.0823 3.19114 13.9686 2.74926C13.856 2.3121 13.4589 2 13 2H7C6.54114 2 6.14396 2.3121 6.03145 2.74926C5.91771 3.19114 5.51929 3.5 5.06301 3.5H2.75C2.33579 3.5 2 3.83579 2 4.25V5H3H17ZM4 7V17.5C4 18.8807 5.11929 20 6.5 20H13.5C14.8807 20 16 18.8807 16 17.5V7H4Z" fill="#E64646"/>
</symbol></svg>