<svg fill="none" xmlns="http://www.w3.org/2000/svg">
<path d="M18 7V17.5C18 19.9853 15.9853 22 13.5 22H6.5C4.01472 22 2 19.9853 2 17.5V7H1.29019C0.577639 7 0 6.42236 0 5.70981V4.25C0 2.73122 1.23122 1.5 2.75 1.5H4.40116C4.92486 0.593418 5.90309 0 7 0H13C14.0969 0 15.0751 0.593418 15.5988 1.5H17.25C18.7688 1.5 20 2.73122 20 4.25V5.70981C20 6.42236 19.4224 7 18.7098 7H18ZM17 5H18V4.25C18 3.83579 17.6642 3.5 17.25 3.5H14.937C14.4807 3.5 14.0823 3.19114 13.9686 2.74926C13.856 2.3121 13.4589 2 13 2H7C6.54114 2 6.14396 2.3121 6.03145 2.74926C5.91771 3.19114 5.51929 3.5 5.06301 3.5H2.75C2.33579 3.5 2 3.83579 2 4.25V5H3H17ZM4 7V17.5C4 18.8807 5.11929 20 6.5 20H13.5C14.8807 20 16 18.8807 16 17.5V7H4Z" fill="#E64646"/>
</svg>
